<svg width="22" height="21" viewBox="0 0 22 21" fill="none" xmlns="http://www.w3.org/2000/svg">
<path d="M6.22734 8.06358H5.53533C4.59099 8.02945 3.64972 8.18976 2.76991 8.53457C1.89011 8.87938 1.09056 9.40132 0.420878 10.068L0.22998 10.2907V16.8767H3.47523V13.1383L3.91271 12.6451L4.11156 12.4144C5.14712 11.3506 6.43635 10.5677 7.85792 10.1396C7.14619 9.59802 6.58486 8.88336 6.22734 8.06358Z" fill="black"/>
<path d="M21.6105 10.0443C20.9408 9.37757 20.1412 8.85563 19.2614 8.51083C18.3816 8.16602 17.4404 8.00571 16.496 8.03984C16.2064 8.04066 15.917 8.05659 15.629 8.08756C15.2648 8.85664 14.7188 9.52549 14.0382 10.0363C15.5558 10.4562 16.9306 11.281 18.0152 12.4225L18.2141 12.6452L18.6436 13.1384V16.8847H21.7775V10.267L21.6105 10.0443Z" fill="black"/>
<path d="M5.5115 6.51262H5.75808C5.64351 5.5289 5.81612 4.53304 6.25507 3.64526C6.69402 2.75748 7.38055 2.01572 8.23179 1.50952C7.92322 1.03813 7.49752 0.654947 6.99637 0.397505C6.49522 0.140064 5.9358 0.0171886 5.37289 0.0409102C4.80998 0.0646318 4.26288 0.234137 3.78517 0.532829C3.30745 0.831521 2.9155 1.24916 2.64769 1.74485C2.37987 2.24053 2.24539 2.79727 2.25739 3.36055C2.2694 3.92383 2.42748 4.47434 2.71617 4.95817C3.00486 5.44199 3.41425 5.84255 3.90426 6.12062C4.39427 6.39868 4.94809 6.54472 5.5115 6.54444V6.51262Z" fill="black"/>
<path d="M16.1142 5.91613C16.1239 6.09895 16.1239 6.28214 16.1142 6.46496C16.2669 6.48916 16.421 6.50245 16.5756 6.50473H16.7267C17.2876 6.47482 17.8312 6.30018 18.3046 5.9978C18.778 5.69543 19.1651 5.27563 19.4281 4.77927C19.6911 4.28291 19.8211 3.72692 19.8054 3.16541C19.7897 2.6039 19.629 2.05601 19.3387 1.57509C19.0484 1.09417 18.6386 0.696603 18.1491 0.421095C17.6595 0.145587 17.107 0.0015269 16.5453 0.00293998C15.9836 0.00435307 15.4318 0.151191 14.9436 0.429159C14.4555 0.707126 14.0477 1.10675 13.7598 1.58913C14.4797 2.05916 15.0717 2.70055 15.4826 3.45576C15.8935 4.21097 16.1106 5.05637 16.1142 5.91613Z" fill="black"/>
<path d="M10.8964 9.47945C12.86 9.47945 14.4519 7.88762 14.4519 5.92399C14.4519 3.96037 12.86 2.36853 10.8964 2.36853C8.93279 2.36853 7.34096 3.96037 7.34096 5.92399C7.34096 7.88762 8.93279 9.47945 10.8964 9.47945Z" fill="black"/>
<path d="M11.0873 11.3725C10.0485 11.3306 9.01203 11.4992 8.04014 11.8683C7.06825 12.2374 6.18106 12.7993 5.43198 13.5201L5.23312 13.7429V18.7778C5.23623 18.9418 5.27161 19.1036 5.33725 19.2539C5.4029 19.4042 5.49751 19.5401 5.61569 19.6539C5.73387 19.7676 5.87331 19.857 6.02603 19.9168C6.17875 19.9767 6.34177 20.0059 6.50577 20.0027H15.645C15.809 20.0059 15.972 19.9767 16.1247 19.9168C16.2774 19.857 16.4169 19.7676 16.5351 19.6539C16.6532 19.5401 16.7479 19.4042 16.8135 19.2539C16.8791 19.1036 16.9145 18.9418 16.9176 18.7778V13.7588L16.7267 13.5201C15.9825 12.7971 15.0984 12.2336 14.1287 11.8643C13.1589 11.495 12.124 11.3277 11.0873 11.3725Z" fill="black"/>
</svg>
