<svg width="22" height="23" viewBox="0 0 22 23" fill="none" xmlns="http://www.w3.org/2000/svg">
<path d="M8.81322 1.04736C9.28629 0.649826 9.88442 0.431885 10.5023 0.431885C11.1203 0.431885 11.7184 0.649826 12.1915 1.04736L20.0682 7.67084C20.3614 7.91722 20.5972 8.22475 20.759 8.57188C20.9207 8.919 21.0046 9.29732 21.0047 9.68029V20.6815C21.0047 21.1457 20.8203 21.5909 20.492 21.9192C20.1638 22.2475 19.7185 22.4319 19.2543 22.4319H14.4407C13.9765 22.4319 13.5313 22.2475 13.203 21.9192C12.8748 21.5909 12.6903 21.1457 12.6903 20.6815V14.5551H8.31436V20.6815C8.31436 21.1457 8.12994 21.5909 7.80168 21.9192C7.47342 22.2475 7.0282 22.4319 6.56397 22.4319H1.75039C1.28616 22.4319 0.84094 22.2475 0.512678 21.9192C0.184416 21.5909 0 21.1457 0 20.6815V9.67941C9.68489e-05 9.29644 0.0839713 8.91813 0.245742 8.571C0.407512 8.22388 0.643262 7.91634 0.936459 7.66996L8.81322 1.04648V1.04736Z" fill="black"/>
</svg>
