<svg width="23" height="23" viewBox="0 0 23 23" fill="none" xmlns="http://www.w3.org/2000/svg">
<path fill-rule="evenodd" clip-rule="evenodd" d="M2.25913 4.32203L0.587126 2.65003C0.539049 2.60183 0.477744 2.569 0.410982 2.55568C0.34422 2.54237 0.275007 2.54918 0.21212 2.57524C0.149232 2.60131 0.0955 2.64547 0.0577367 2.70211C0.0199733 2.75875 -0.000121251 2.82533 5.50448e-07 2.89341V7.90666C5.50448e-07 8.09641 0.154001 8.25041 0.343751 8.25041H5.357C5.42508 8.25053 5.49166 8.23043 5.5483 8.19267C5.60494 8.15491 5.6491 8.10118 5.67517 8.03829C5.70123 7.9754 5.70804 7.90619 5.69473 7.83943C5.68141 7.77266 5.64857 7.71136 5.60038 7.66328L3.73313 5.79603C4.95032 4.09605 6.725 2.87661 8.74838 2.34988C10.7718 1.82315 12.9158 2.02248 14.8074 2.91317C16.699 3.80387 18.2184 5.32957 19.1014 7.2248C19.9844 9.12003 20.1749 11.2648 19.6399 13.286C19.1049 15.3073 17.8782 17.0769 16.1733 18.2872C14.4683 19.4974 12.393 20.0716 10.3085 19.9098C8.22394 19.7481 6.26207 18.8606 4.76424 17.4018C3.2664 15.9431 2.32741 14.0053 2.11063 11.9258C2.08255 11.6536 1.94747 11.4036 1.73512 11.231C1.52277 11.0584 1.25054 10.9771 0.978313 11.0052C0.706085 11.0333 0.456161 11.1684 0.283522 11.3807C0.110883 11.5931 0.0296708 11.8653 0.0577505 12.1375C0.322284 14.683 1.46596 17.0566 3.29189 18.8497C5.11783 20.6428 7.51177 21.7433 10.0616 21.9616C12.6114 22.18 15.1576 21.5025 17.2618 20.0459C19.366 18.5893 20.8966 16.4447 21.59 13.9813C22.2834 11.5179 22.0964 8.88976 21.061 6.5494C20.0256 4.20904 18.2067 2.30287 15.9174 1.15902C13.6281 0.0151824 11.0116 -0.294756 8.51839 0.282566C6.0252 0.859888 3.81128 2.28835 2.25775 4.32203H2.25913ZM10.6563 5.50041C10.9298 5.50041 11.1921 5.60906 11.3855 5.80245C11.5788 5.99585 11.6875 6.25815 11.6875 6.53166V10.6457L14.476 11.7622C14.7217 11.8693 14.9161 12.0679 15.0179 12.3159C15.1197 12.5638 15.1209 12.8417 15.0213 13.0906C14.9218 13.3395 14.7292 13.5398 14.4844 13.6491C14.2396 13.7584 13.9619 13.7681 13.7101 13.6762L10.2726 12.3012C10.0815 12.2245 9.91761 12.0924 9.80218 11.9219C9.68676 11.7513 9.62505 11.5501 9.625 11.3442V6.53166C9.625 6.25815 9.73365 5.99585 9.92705 5.80245C10.1204 5.60906 10.3827 5.50041 10.6563 5.50041Z" fill="black"/>
</svg>
